<?xml version="1.0" standalone="no"?>
<!DOCTYPE svg PUBLIC "-//W3C//DTD SVG 20010904//EN"
 "http://www.w3.org/TR/2001/REC-SVG-20010904/DTD/svg10.dtd">
<svg version="1.0" xmlns="http://www.w3.org/2000/svg"
 width="64.000000pt" height="64.000000pt" viewBox="0 0 64.000000 64.000000"
 preserveAspectRatio="xMidYMid meet">

<g transform="translate(0.000000,64.000000) scale(0.100000,-0.100000)"
fill="#000000" stroke="none">
<path d="M10 620 c0 -15 39 -21 119 -18 48 2 76 7 79 16 3 9 -21 12 -97 12
-59 0 -101 -4 -101 -10z"/>
<path d="M267 623 c-9 -15 -127 -411 -127 -427 0 -8 10 -22 22 -30 18 -13 57
-16 214 -16 168 0 194 2 213 18 19 15 22 37 37 225 13 165 14 210 4 222 -10
12 -44 15 -186 15 -95 0 -175 -3 -177 -7z m72 -157 c-1 -83 6 -106 36 -106 25
0 70 45 124 123 31 46 41 53 54 41 9 -9 -64 -112 -111 -157 -32 -32 -45 -38
-73 -35 -45 4 -59 34 -59 126 0 57 3 72 15 72 12 0 15 -14 14 -64z"/>
<path d="M50 520 c0 -24 120 -26 128 -2 3 9 -14 12 -62 12 -37 0 -66 -4 -66
-10z"/>
<path d="M90 421 c0 -12 37 -24 50 -16 20 12 10 25 -20 25 -16 0 -30 -4 -30
-9z"/>
<path d="M161 111 c-24 -24 -28 -73 -7 -90 45 -38 130 21 110 76 -13 37 -72
45 -103 14z m75 -26 c9 -21 -14 -45 -42 -45 -16 0 -24 6 -24 18 0 37 54 59 66
27z"/>
<path d="M461 111 c-24 -24 -28 -73 -7 -90 45 -38 130 21 110 76 -13 37 -72
45 -103 14z m75 -26 c9 -21 -14 -45 -42 -45 -16 0 -24 6 -24 18 0 37 54 59 66
27z"/>
</g>
</svg>
